
Release info:

General
Format                                   : Matroska
Format version                           : Version 2
File size                                : 692 MiB
Duration                                 : 1h 31mn
Overall bit rate mode                    : Variable
Overall bit rate                         : 1 057 Kbps

Video
ID                                       : 1
Format                                   : MPEG-4 Visual
Format profile                           : Advanced Simple@L5
Format settings, BVOP                    : Yes
Format settings, QPel                    : No
Format settings, GMC                     : No warppoints
Format settings, Matrix                  : Default (H.263)
Codec ID                                 : V_MS/VFW/FOURCC / XVID
Codec ID/Hint                            : XviD
Duration                                 : 1h 31mn
Bit rate                                 : 908 Kbps
Width                                    : 640 pixels
Height                                   : 352 pixels
Display aspect ratio                     : 16:9
Frame rate mode                          : Constant
Frame rate                               : 23.976 fps
Color space                              : YUV
Chroma subsampling                       : 4:2:0
Bit depth                                : 8 bits
Scan type                                : Progressive
Compression mode                         : Lossy
Bits/(Pixel*Frame)                       : 0.168
Stream size                              : 594 MiB (86%)
Language                                 : English
Default                                  : Yes
Forced                                   : No

Audio
ID                                       : 2
Format                                   : MPEG Audio
Format version                           : Version 1
Format profile                           : Layer 3
Mode                                     : Joint stereo
Mode extension                           : MS Stereo
Muxing mode                              : Header stripping
Codec ID                                 : A_MPEG/L3
Codec ID/Hint                            : MP3
Duration                                 : 1h 27mn
Bit rate mode                            : Variable
Bit rate                                 : 128 Kbps
Channel(s)                               : 2 channels
Sampling rate                            : 48.0 KHz
Compression mode                         : Lossy
Stream size                              : 80.2 MiB (12%)
Language                                 : English
Default                                  : Yes
Forced                                   : No

Text
ID                                       : 3
Format                                   : UTF-8
Codec ID                                 : S_TEXT/UTF8
Codec ID/Info                            : UTF-8 Plain Text
Title                                    : Accipiter [TeaM DT]
Language                                 : English
Default                                  : Yes
Forced                                   : No




Source:
credit to original movie ripper (Thanks)

IMDB Info:

Dracula, who operates a high-end resort away from the human world, goes into overprotective mode when a boy discovers the resort and falls for the count's teen-aged daughter.

Director: Genndy Tartakovsky
Writers: Peter Baynham (screenplay), Robert Smigel (screenplay), 
Stars: Adam Sandler, Kevin James and Andy Samberg

Genres: Animation | Comedy | Family
 
http://www.imdb.com/title/tt0837562/

Screen Shot:
 
http://www.shotpix.com/images/88424703668759260225.png 
http://www.shotpix.com/images/19596140179873933987.png 
http://www.shotpix.com/images/31509429574926474201.png 
http://www.shotpix.com/images/55507338927081652391.png 
http://www.shotpix.com/images/41553551548433469267.png 
http://www.shotpix.com/images/42541724149488022829.png